<svg xmlns="http://www.w3.org/2000/svg" version="1.1" xmlns:xlink="http://www.w3.org/1999/xlink" xmlns:svgjs="http://svgjs.dev/svgjs" width="1000" height="371" viewBox="0 0 1000 371"><g transform="matrix(1,0,0,1,-0.6060606060606233,0.19418157166180094)"><svg viewBox="0 0 396 147" data-background-color="#ffffff" preserveAspectRatio="xMidYMid meet" height="371" width="1000" xmlns="http://www.w3.org/2000/svg" xmlns:xlink="http://www.w3.org/1999/xlink"><g id="tight-bounds" transform="matrix(1,0,0,1,0.2400000000000091,-0.07693986801693597)"><svg viewBox="0 0 395.52 147.15387973603387" height="147.15387973603387" width="395.52"><g><svg viewBox="0 0 397.4976 147.88964913471403" height="147.15387973603387" width="395.52"><g><rect width="397.4976" height="3.6686710856169005" x="0" y="93.9359438212232" fill="#233565" opacity="1" stroke-width="0" stroke="transparent" fill-opacity="1" class="rect-r$-0" data-fill-palette-color="secondary" rx="1%" id="r$-0" data-palette-color="#233565"></rect></g><g transform="matrix(1,0,0,1,0.9887999999999693,107.20846591630844)"><svg viewBox="0 0 395.52000000000004 40.68118321840562" height="40.68118321840562" width="395.52000000000004"><g id="textblocktransform"><svg viewBox="0 0 395.52000000000004 40.68118321840562" height="40.68118321840562" width="395.52000000000004" id="textblock"><g><svg viewBox="0 0 395.52000000000004 40.68118321840562" height="40.68118321840562" width="395.52000000000004"><g transform="matrix(1,0,0,1,0,0)"><svg width="395.52000000000004" viewBox="2.12 -38.4 378.81 38.96" height="40.68118321840562" data-palette-color="#233565"><path d="M24.37 0L9.89-30.71Q9.89-30.71 8.86-2.64L8.86-2.64 12.26-2.08 12.26 0 2.12 0 2.12-2.08 5.59-2.64 7.35-34.18 3.91-34.74 3.91-36.82 12.26-36.82 25.37-8.23 38.57-36.82 46.22-36.82 46.22-34.74 42.55-34.18Q42.94-26.22 43.38-18.33 43.82-10.45 44.19-2.64L44.19-2.64 47.95-2.08 47.95 0 36.01 0 36.01-2.08 39.67-2.64 38.57-30.35 24.37 0ZM69.36 0.56L69.36 0.56Q54.73 0.56 54.73-13.21L54.73-13.21 54.73-34.18 50.95-34.74 50.95-36.82 63.16-36.82 63.16-34.74 59.25-34.18 59.25-13.94Q59.25-4.93 64.99-2.98L64.99-2.98Q66.82-2.37 69.42-2.37 72.02-2.37 74.09-3.03 76.17-3.69 77.54-5.1L77.54-5.1Q80.25-7.91 80.25-13.94L80.25-13.94 80.25-34.18 76.51-34.74 76.51-36.82 86.74-36.82 86.74-34.74 83.05-34.18 83.05-13.21Q83.05-6.62 79.51-3.03 75.97 0.56 69.36 0.56ZM98.43-18.38L114.79-34.23 112.03-34.74 112.03-36.82 123.48-36.82 123.48-34.74 119.11-34.23 103.58-19.31 118.48-3.39 120.38-2.47 123.55-2.08 123.55 0 114.96 0 98.43-18.38ZM89.94-34.74L89.94-36.82 101.9-36.82 101.9-34.74 98.24-34.18 98.24-2.64 101.9-2.08 101.9 0 89.94 0 89.94-2.08 93.72-2.64 93.72-34.18 89.94-34.74ZM145.09-15.09L144.35-17.65 135.37-17.65 135.37-2.93 148.97-2.93 150.72-7.25 152.58-7.25 151.77 0 127.07 0 127.07-2.08 130.78-2.64 130.78-34.18 127.07-34.74 127.07-36.82 150.7-36.82 151.26-29.57 149.11-29.57 147.8-33.86 135.37-33.86 135.37-20.58 144.35-20.58 145.09-23.17 146.82-23.17 146.82-15.09 145.09-15.09ZM156.02-36.82L167.98-36.82 167.98-34.74 164.32-34.18 164.32-2.93 177.7-2.93 179.14-8.4 181.14-8.4 180.92 0 156.02 0 156.02-2.08 159.73-2.64 159.73-34.18 156.02-34.74 156.02-36.82ZM185.17-36.82L197.13-36.82 197.13-34.74 193.47-34.18 193.47-2.93 206.85-2.93 208.29-8.4 210.29-8.4 210.07 0 185.17 0 185.17-2.08 188.88-2.64 188.88-34.18 185.17-34.74 185.17-36.82ZM232.58-15.09L231.85-17.65 222.86-17.65 222.86-2.93 236.46-2.93 238.22-7.25 240.07-7.25 239.27 0 214.56 0 214.56-2.08 218.27-2.64 218.27-34.18 214.56-34.74 214.56-36.82 238.19-36.82 238.75-29.57 236.61-29.57 235.29-33.86 222.86-33.86 222.86-20.58 231.85-20.58 232.58-23.17 234.31-23.17 234.31-15.09 232.58-15.09ZM261.99-14.48L261.26-17.07 251.81-17.07 251.81-2.64 257.36-2.08 257.36 0 243.51 0 243.51-2.08 247.22-2.64 247.22-34.18 243.51-34.74 243.51-36.82 268.37-36.82 268.93-29.57 266.78-29.57 265.46-33.86 251.81-33.86 251.81-20.02 261.26-20.02 261.99-22.61 263.51-22.61 263.51-14.48 261.99-14.48ZM292.88-37.38L292.88-37.38Q297.83-37.38 301.96-36.13L301.96-36.13Q303.76-35.57 304.98-34.89L304.98-34.89 304.42-28.37 302.81-28.37Q302.81-31.08 300.15-32.71L300.15-32.71Q297.32-34.45 292.36-34.45L292.36-34.45Q285.94-34.45 281.74-30.13L281.74-30.13Q277.57-25.78 277.57-19.26L277.57-19.26Q277.57-12.35 281.43-7.54L281.43-7.54Q284.04-4.3 288.04-3.03L288.04-3.03Q290.09-2.37 292.7-2.37 295.32-2.37 297.34-2.67 299.37-2.98 300.66-3.66L300.66-3.66Q303.2-5 303.2-8.2L303.2-8.2 304.81-8.2 305.16-1.9Q300.91 0.56 292.63 0.56L292.63 0.56Q283.5 0.56 278.06-4.74L278.06-4.74Q272.86-9.79 272.86-17.77L272.86-17.77Q272.86-26.61 279.01-32.18L279.01-32.18Q284.7-37.38 292.88-37.38ZM334.33 0L334.33-2.08 337.7-2.64 333.84-12.13 319.19-12.13 315.36-2.64 318.8-2.08 318.8 0 308.33 0 308.33-2.08 312.18-2.64 325-34.33 323.98-36.74 327.93-38.4 342.53-2.64 346.46-2.08 346.46 0 334.33 0ZM326.54-30.76L320.34-15.09 332.77-15.09 326.54-30.76ZM349.24-36.82L380.35-36.82 380.93-28.98 378.73-28.98 377.49-33.86 367.06-33.86 367.06-2.64 372.44-2.08 372.44 0 357.18 0 357.18-2.08 362.5-2.64 362.5-33.86 352.12-33.86 350.81-28.98 348.66-28.98 349.24-36.82Z" opacity="1" transform="matrix(1,0,0,1,0,0)" fill="#233565" class="wordmark-text-0" data-fill-palette-color="primary" id="text-0"></path></svg></g></svg></g></svg></g></svg></g><g transform="matrix(1,0,0,1,150.11849114980052,0)"><svg viewBox="0 0 97.26061770039895 84.33209281175488" height="84.33209281175488" width="97.26061770039895"><g><svg xmlns="http://www.w3.org/2000/svg" xmlns:xlink="http://www.w3.org/1999/xlink" version="1.1" x="8" y="0" viewBox="10.00289175453166 8.996883762029125 77.94540988589893 80.89157733187687" enable-background="new 0 0 100 100" xml:space="preserve" height="84.33209281175488" width="81.26061770039895" class="icon-icon-0" data-fill-palette-color="accent" id="icon-0"><g fill="#3c7bd3" data-fill-palette-color="accent"><path fill-rule="evenodd" clip-rule="evenodd" d="M55.977 68.678c0.004 0.718 0.089 1.438 0.061 2.15-0.069 1.807 0.025 3.617-0.106 5.421-0.066 0.916 0.353 1.472 1.312 1.668 1.435 0.292 2.886 0.411 4.35 0.384 1.08-0.02 2.152 0.059 3.218 0.232 0.917 0.149 1.547 0.866 1.729 1.914 0.068 0.395 0.05 0.786 0.024 1.18-0.009 0.144-0.072 0.26-0.17 0.361-0.061 0.062-0.134 0.118-0.175 0.192-0.591 1.057-1.575 1.209-2.657 1.201-1.456-0.012-2.898-0.263-4.357-0.187-0.354 0.019-0.71 0.105-1.072 0.026-0.216-0.048-0.364 0.144-0.503 0.252-0.089 0.07 0.113 0.213 0.176 0.327 0.251 0.457 0.449 0.928 0.488 1.458 0.032 0.444 0.078 0.89 0.145 1.329 0.123 0.822-0.483 1.92-1.45 2.149-0.584 0.138-1.139 0.396-1.711 0.589-0.151 0.051-0.315 0.073-0.474 0.082-0.558 0.033-1.095 0.229-1.659 0.199-0.037-0.002-0.082-0.004-0.11 0.015-0.529 0.349-1.131 0.151-1.697 0.214-0.314 0.035-0.643-0.054-0.949-0.112-0.619-0.12-1.247-0.16-1.868-0.272-0.534-0.098-1.085-0.172-1.632-0.219-1.702-0.147-3.408-0.073-5.113-0.05-0.904 0.012-1.817-0.043-2.712 0.063-1.035 0.124-2.082 0.098-3.111 0.317-0.623 0.134-1.276 0.123-1.916 0.184-1.525 0.145-3.057 0.122-4.585 0.136-1.317 0.013-2.641 0.022-3.951-0.09-1.165-0.101-2.341-0.075-3.494-0.229-0.623-0.083-1.288 0.011-1.885-0.311-0.264-0.142-0.591-0.021-0.895-0.062-0.45-0.06-0.925-0.077-1.346-0.213-0.515-0.165-1.051-0.155-1.57-0.318-0.592-0.185-1.211-0.327-1.818-0.486-0.518-0.136-1.033-0.308-1.517-0.533-0.532-0.247-1.095-0.412-1.604-0.738-0.481-0.311-0.782-0.743-0.976-1.206-0.571-1.364-0.562-2.738 0.295-4.002 0.398-0.587 1.05-0.885 1.687-1.17 1.076-0.482 2.159-0.931 3.35-1.063 0.328-0.036 0.644-0.176 0.946-0.32 0.504-0.239 1.002-0.49 1.512-0.715 0.641-0.282 1.127-0.75 1.599-1.246 0.158-0.167 0.137-0.365 0.138-0.56 0.004-1.251-0.029-2.504 0.011-3.754 0.07-2.251 0.172-4.5 0.28-6.749 0.129-2.66 0.438-5.303 0.857-7.93 0.164-1.024 0.422-2.035 0.596-3.061 0.178-1.036 0.527-2.026 0.775-3.044 0.487-1.999 1.093-3.96 1.826-5.882 0.63-1.651 1.16-3.345 1.86-4.964 0.986-2.285 2.131-4.497 3.394-6.646 0.729-1.24 1.492-2.457 2.471-3.518 1.702-1.847 3.376-3.721 5.476-5.15 1.118-0.76 2.29-1.418 3.478-2.061 0.945-0.512 1.845-1.107 2.809-1.593 1.361-0.688 2.764-1.264 4.22-1.722 1.111-0.349 2.15-0.85 3.116-1.528 1.02-0.717 2.009-1.49 3.137-2.043 1.387-0.681 2.784-1.341 4.157-2.048 0.61-0.315 1.267-0.418 1.917-0.549 0.73-0.147 1.436-0.387 2.164-0.533 0.247-0.05 0.325-0.238 0.413-0.434 0.273-0.599 0.453-1.231 0.655-1.854 0.197-0.604 0.517-1.151 0.745-1.739 0.092-0.241 0.052-0.568 0.359-0.7 0.393-0.166 0.789-0.132 1.202-0.064 1.188 0.193 2.247 0.767 3.386 1.1 0.191 0.055 0.381 0.103 0.582 0.107 1.694 0.041 3.326 0.427 4.943 0.897 1.141 0.332 2.25 0.75 3.348 1.201 0.538 0.222 1.12 0.237 1.682 0.256 0.851 0.028 1.703 0.062 2.558 0.039 1.484-0.04 2.973-0.058 4.456 0.067 0.657 0.055 1.052 0.354 1.134 0.829 0.021 0.125 0.03 0.25-0.015 0.368-0.14 0.364-0.295 0.724-0.429 1.092-0.112 0.306-0.396 0.476-0.575 0.734-0.198 0.29-0.442 0.581-0.704 0.844-0.565 0.57-0.973 1.266-1.402 1.94-0.434 0.683-0.981 1.273-1.521 1.871-0.047 0.053-0.133 0.059-0.081 0.164 0.075 0.155-0.033 0.268-0.133 0.35-0.299 0.248-0.465 0.559-0.504 0.941-0.002 0.023-0.002 0.061-0.016 0.07-0.396 0.258-0.436 0.745-0.707 1.096-0.448 0.575-0.818 1.215-1.093 1.908-0.154 0.389-0.433 0.739-0.702 1.067-0.403 0.49-0.711 1.043-1.081 1.556-0.455 0.629-0.942 1.229-1.489 1.784-0.304 0.307-0.583 0.641-0.894 0.94-0.675 0.649-1.402 1.251-2.031 1.942-0.351 0.386-0.704 0.788-0.995 1.229-0.142 0.213-0.342 0.354-0.521 0.522-0.209 0.194-0.311 0.398-0.296 0.714 0.016 0.375-0.079 0.759-0.156 1.133-0.062 0.299-0.23 0.571-0.193 0.897 0.027 0.233-0.209 0.344-0.312 0.515-0.336 0.552-0.55 1.163-0.914 1.71-0.216 0.324-0.513 0.64-0.638 1.065-0.114 0.385-0.465 0.688-0.761 0.983-0.44 0.44-0.896 0.865-1.346 1.297-0.045 0.043-0.084 0.091-0.134 0.127-0.552 0.396-0.579 0.408-0.294 1.03 0.839 1.837 1.633 3.691 2.327 5.589 0.65 1.779 1.295 3.562 1.933 5.345 1.18 3.3 2.313 6.616 3.519 9.906 0.528 1.44 0.976 2.91 1.448 4.371 0.565 1.757 1.203 3.488 1.873 5.207 0.508 1.303 0.922 2.644 1.572 3.889 0.445 0.852 1.08 1.491 2.009 1.829 0.674 0.246 1.328 0.547 1.987 0.832 0.671 0.291 1.199 1.169 1.14 1.895-0.026 0.323-0.233 0.546-0.484 0.715-0.28 0.188-0.607 0.307-0.939 0.318-0.935 0.034-1.866 0.097-2.805 0.006-0.614-0.059-1.228-0.123-1.837-0.214-0.557-0.084-0.882-0.448-1.021-0.995-0.063-0.251-0.177-0.488-0.27-0.73-0.366-0.953-0.682-1.931-1.121-2.849-0.212-0.443-0.347-0.897-0.503-1.352-0.012-0.035-0.019-0.076-0.041-0.104-0.5-0.595-0.515-1.389-0.853-2.056-0.479-0.943-0.791-1.963-1.206-2.938-0.305-0.713-0.572-1.447-0.897-2.151-0.215-0.466-0.259-1-0.584-1.41-0.35-0.438-0.318-1.036-0.653-1.481-0.094-0.124-0.057-0.346-0.299-0.355-0.024-0.001-0.058-0.106-0.063-0.165-0.084-0.792-0.471-1.476-0.78-2.186-0.209-0.48-0.359-1.01-0.667-1.418-0.389-0.515-0.5-1.142-0.839-1.667-0.173-0.269-0.265-0.604-0.418-0.865-0.225-0.382-0.248-0.871-0.651-1.172-0.184-0.138-0.23-0.442-0.341-0.667-0.103-0.21-0.17-0.424-0.362-0.573-0.045-0.037-0.089-0.097-0.099-0.152-0.142-0.782-0.606-1.39-1.075-1.996-0.232-0.302-0.249-0.697-0.498-1.016-0.331-0.423-0.518-0.946-0.835-1.4-0.281-0.4-0.446-0.895-0.741-1.308-0.392-0.546-0.628-1.179-0.965-1.753-0.334-0.57-0.533-1.211-0.891-1.754-0.435-0.662-0.865-1.351-1.545-1.814-0.865-0.593-1.521-0.268-2.194 0.392-0.434 0.424-0.784 0.917-1.103 1.418-0.133 0.21-0.318 0.439-0.34 0.746-0.016 0.227-0.215 0.418-0.281 0.663-0.604 2.213-0.988 4.46-1.095 6.752-0.1 2.138-0.221 4.274-0.317 6.412C56.1 65.018 56.026 66.848 55.977 68.678zM65.585 36.582c-0.053 0.344-0.062 0.668 0.043 0.977 0.059 0.178 0.166 0.347 0.354 0.085 0.89-1.247 1.755-2.513 2.475-3.869 0.069-0.131 0.104-0.3-0.033-0.367-0.426-0.21-0.521-0.646-0.72-1.004-0.215-0.387-0.768-0.511-1.071-0.19-0.238 0.253-0.281 0.596-0.374 0.912-0.21 0.713-0.292 1.453-0.456 2.175C65.704 35.732 65.505 36.144 65.585 36.582zM16.226 83.793c1.986 0.598 4.017 0.909 6.158 1.126-1.012-0.577-1.759-1.39-2.917-1.535C18.337 83.242 17.307 83.603 16.226 83.793z" fill="#3c7bd3" data-fill-palette-color="accent"></path></g></svg></g></svg></g><g><rect width="73.58537114980052" height="3.6686710856169005" y="79.66342172613797" x="247.3791088501995" fill="#233565" data-fill-palette-color="secondary"></rect><rect width="73.58537114980052" height="3.6686710856169005" y="79.66342172613797" x="76.53312" fill="#233565" data-fill-palette-color="secondary"></rect></g></svg></g><defs></defs></svg><rect width="395.52" height="147.15387973603387" fill="none" stroke="none" visibility="hidden"></rect></g></svg></g></svg>